<?xml version="1.0" encoding="UTF-8" standalone="no"?>
<!DOCTYPE svg PUBLIC "-//W3C//DTD SVG 1.1//EN"
 "http://www.w3.org/Graphics/SVG/1.1/DTD/svg11.dtd">
<!-- Generated by graphviz version 7.0.6 (20230106.0513)
 -->
<!-- Title: G Pages: 1 -->
<svg width="367pt" height="246pt"
 viewBox="0.00 0.00 367.42 246.11" xmlns="http://www.w3.org/2000/svg" xmlns:xlink="http://www.w3.org/1999/xlink">
<g id="graph0" class="graph" transform="scale(1 1) rotate(0) translate(4 242.11)">
<title>G</title>
<polygon fill="white" stroke="none" points="-4,4 -4,-242.11 363.42,-242.11 363.42,4 -4,4"/>
<!-- 0 -->
<!-- 1 -->
<g id="node1" class="node">
<title>0</title>
<ellipse fill="none" stroke="black" cx="302" cy="-221.84" rx="45.01" ry="16.03"/>
<text text-anchor="middle" x="302" y="-218.14" font-family="Times New Roman,serif" font-size="14.00">maoning</text>
</g>
<!-- 2 -->
<!-- 3 -->
<g id="node3" class="node">
<title>2</title>
<ellipse fill="none" stroke="black" cx="234" cy="-153.32" rx="108" ry="16.03"/>
<text text-anchor="middle" x="234" y="-149.62" font-family="Times New Roman,serif" font-size="14.00">d</text>
</g>
<!-- 0&#45;&gt;2 -->
<g id="edge3" class="edge">
<title>0&#45;&gt;2</title>
<path fill="none" stroke="black" d="M287.25,-206.41C278.66,-198.01 267.65,-187.24 257.86,-177.66"/>
<polygon fill="black" stroke="black" points="260.35,-175.2 250.75,-170.71 255.45,-180.2 260.35,-175.2"/>
</g>
<!-- 1 -->
<!-- 0 -->
<g id="node2" class="node">
<title>1</title>
<ellipse fill="none" stroke="black" cx="333" cy="-16.26" rx="16.03" ry="16.03"/>
<text text-anchor="middle" x="333" y="-12.56" font-family="Times New Roman,serif" font-size="14.00">a</text>
</g>
<!-- 1&#45;&gt;0 -->
<g id="edge1" class="edge">
<title>1&#45;&gt;0</title>
<path fill="none" stroke="black" d="M339.04,-31.3C349.98,-58.88 370.23,-121.63 351,-169.58 346.46,-180.89 338.11,-191.12 329.56,-199.42"/>
<polygon fill="black" stroke="black" points="327.32,-196.73 322.22,-206.02 332,-201.94 327.32,-196.73"/>
</g>
<!-- 1&#45;&gt;2 -->
<g id="edge2" class="edge">
<title>1&#45;&gt;2</title>
<path fill="none" stroke="black" d="M332.93,-32.57C332.12,-50.51 328.48,-80.42 314,-101.05 305.01,-113.86 291.71,-124.21 278.52,-132.17"/>
<polygon fill="black" stroke="black" points="276.84,-129.1 269.84,-137.05 280.27,-135.2 276.84,-129.1"/>
</g>
<!-- 3 -->
<!-- 2 -->
<g id="node4" class="node">
<title>3</title>
<ellipse fill="none" stroke="black" cx="233" cy="-84.79" rx="72" ry="16.03"/>
<text text-anchor="middle" x="233" y="-81.09" font-family="Times New Roman,serif" font-size="14.00">c</text>
</g>
<!-- 2&#45;&gt;3 -->
<g id="edge6" class="edge">
<title>2&#45;&gt;3</title>
<path fill="none" stroke="black" d="M233.77,-136.89C233.66,-129.67 233.53,-120.85 233.4,-112.59"/>
<polygon fill="black" stroke="black" points="236.9,-112.6 233.25,-102.65 229.9,-112.7 236.9,-112.6"/>
</g>
<!-- 4 -->
<!-- 4 -->
<g id="node5" class="node">
<title>4</title>
<ellipse fill="none" stroke="black" cx="144" cy="-16.26" rx="144" ry="16.03"/>
<text text-anchor="middle" x="144" y="-12.56" font-family="Times New Roman,serif" font-size="14.00">e</text>
</g>
<!-- 2&#45;&gt;4 -->
<g id="edge7" class="edge">
<title>2&#45;&gt;4</title>
<path fill="none" stroke="black" d="M196.44,-137.96C180.04,-129.7 162.24,-117.62 152,-101.05 141.56,-84.17 139.95,-61.61 140.73,-44.15"/>
<polygon fill="black" stroke="black" points="144.22,-44.5 141.49,-34.27 137.24,-43.97 144.22,-44.5"/>
</g>
<!-- 3&#45;&gt;1 -->
<g id="edge4" class="edge">
<title>3&#45;&gt;1</title>
<path fill="none" stroke="black" d="M254.7,-69.36C271.16,-58.41 293.72,-43.4 310.4,-32.3"/>
<polygon fill="black" stroke="black" points="312.26,-35.26 318.65,-26.81 308.39,-29.43 312.26,-35.26"/>
</g>
<!-- 3&#45;&gt;4 -->
<g id="edge5" class="edge">
<title>3&#45;&gt;4</title>
<path fill="none" stroke="black" d="M213.25,-69.03C201.54,-60.28 186.49,-49.03 173.41,-39.25"/>
<polygon fill="black" stroke="black" points="175.63,-36.54 165.53,-33.35 171.44,-42.14 175.63,-36.54"/>
</g>
</g>
</svg>
